<?xml version="1.0" standalone="no"?>
<!DOCTYPE svg PUBLIC "-//W3C//DTD SVG 20010904//EN"
 "http://www.w3.org/TR/2001/REC-SVG-20010904/DTD/svg10.dtd">
<svg version="1.0" xmlns="http://www.w3.org/2000/svg"
 width="96.000000pt" height="96.000000pt" viewBox="0 0 96.000000 96.000000"
 preserveAspectRatio="xMidYMid meet">
<metadata>
Created by potrace 1.14, written by Peter Selinger 2001-2017
</metadata>
<g transform="translate(0.000000,96.000000) scale(0.100000,-0.100000)"
fill="#000000" stroke="none">
<path d="M32 714 l3 -217 208 0 c114 0 210 3 214 6 4 5 8 343 4 415 -1 9 -51
12 -216 12 l-215 0 2 -216z"/>
<path d="M494 715 c0 -210 1 -215 21 -216 11 0 108 -1 215 -1 l195 -1 1 217 2
216 -217 0 -217 0 0 -215z m241 60 c-58 -58 -108 -105 -112 -105 -4 0 -17 10
-30 22 l-24 22 83 83 83 83 52 0 53 0 -105 -105z m95 -56 c0 -3 -16 -20 -35
-39 -19 -19 -35 -38 -35 -42 0 -5 18 -27 40 -48 l41 -40 -54 0 c-49 0 -56 3
-95 43 l-43 44 45 44 c39 39 49 44 90 44 25 0 46 -2 46 -6z"/>
<path d="M30 250 l0 -217 210 0 c125 0 213 4 217 10 3 5 6 102 6 216 l0 206
-217 0 -216 1 0 -216z"/>
<path d="M494 253 c0 -184 2 -213 15 -217 9 -2 106 -3 216 -3 l200 2 0 215 0
215 -216 0 -215 1 0 -213z"/>
</g>
</svg>
